<?xml version="1.0" encoding="UTF-8"?>
<!-- Uploaded to: ICON Repo, www.svgrepo.com, Generator: ICON Repo Mixer Tools -->
<svg fill="#000000" width="800px" height="800px" version="1.1" viewBox="144 144 512 512" xmlns="http://www.w3.org/2000/svg">
 <path d="m569.52 255.12c-43.336-35.82-109.79-31.309-151.3 10.211l-18.215 18.215-18.219-18.219c-41.508-41.516-108-46.012-151.3-10.219-24.477 20.215-38.773 48.695-40.277 80.195-1.4766 31.078 10.293 61.5 32.266 83.477l131.2 131.2c12.781 12.777 29.551 19.16 46.336 19.16 16.781 0 33.551-6.3828 46.332-19.16l131.2-131.2c21.988-21.988 33.742-52.41 32.266-83.488-1.5039-31.492-15.801-59.973-40.277-80.172zm-11.781 143.87-131.2 131.2c-14.625 14.625-38.457 14.625-53.082 0l-131.2-131.2c-16.414-16.414-25.203-39.141-24.094-62.348 1.1211-23.535 11.82-44.828 30.137-59.957 14.488-11.957 32.5-17.82 50.801-17.82 22.551 0 45.551 8.9102 62.895 26.254l28.113 28.113c5.4648 5.4648 14.324 5.4648 19.789 0l28.113-28.113c31.445-31.406 81.371-35.109 113.69-8.4336v0.011718c18.312 15.117 29.016 36.406 30.137 59.93 1.1016 23.207-7.6875 45.934-24.102 62.363z"/>
</svg>