<?xml version="1.0" encoding="UTF-8"?>
<!-- Uploaded to: ICON Repo, www.svgrepo.com, Generator: ICON Repo Mixer Tools -->
<svg fill="#000000" width="800px" height="800px" version="1.1" viewBox="144 144 512 512" xmlns="http://www.w3.org/2000/svg">
 <path d="m258.3 525.95c0 4.1758 1.6602 8.1836 4.6133 11.133 2.9531 2.9531 6.957 4.6133 11.133 4.6133h251.9c4.1758 0 8.1836-1.6602 11.133-4.6133 2.9531-2.9492 4.6133-6.957 4.6133-11.133-0.042968-30.848-10.156-60.836-28.797-85.418-18.641-24.578-44.793-42.402-74.484-50.766 20.422-11.418 34.707-31.328 38.98-54.328 4.2734-23.004-1.9062-46.715-16.859-64.707-14.957-17.988-37.141-28.395-60.535-28.395-23.398 0-45.582 10.406-60.535 28.395-14.957 17.992-21.137 41.703-16.863 64.707 4.2773 23 18.562 42.91 38.98 54.328-29.691 8.3633-55.844 26.188-74.484 50.766-18.641 24.582-28.75 54.57-28.797 85.418zm106.12-236.16c8.3047-9.3281 19.965-14.988 32.434-15.742h3.1484c14.508 0.11328 28.156 6.8906 37.02 18.379 8.8594 11.484 11.953 26.406 8.3828 40.469-3.5664 14.062-13.398 25.703-26.668 31.574-13.266 5.8711-28.496 5.3203-41.305-1.4961-12.805-6.8164-21.77-19.141-24.309-33.426-2.5391-14.285 1.625-28.941 11.297-39.758zm35.582 125.95c26.504-0.007813 52.125 9.5391 72.164 26.891 20.039 17.348 33.152 41.34 36.941 67.574h-218.21c3.7891-26.234 16.902-50.227 36.941-67.574 20.039-17.352 45.66-26.898 72.168-26.891z"/>
</svg>