<?xml version="1.0" encoding="UTF-8"?>
<!-- Uploaded to: ICON Repo, www.svgrepo.com, Generator: ICON Repo Mixer Tools -->
<svg fill="#000000" width="800px" height="800px" version="1.1" viewBox="144 144 512 512" xmlns="http://www.w3.org/2000/svg">
 <path d="m258.93 414.76 0.50391 0.40234c11.562 8.3672 20.18 20.18 24.617 33.746 4.4336 13.57 4.457 28.191 0.066406 41.773v0.75781c-4.418 13.387-2.9258 28.023 4.1094 40.238 7.0352 12.219 18.941 20.859 32.738 23.758 13.797 2.8945 28.176-0.22266 39.531-8.5781l5.0391-3.8281c10-7.3125 22.07-11.254 34.461-11.254 12.387 0 24.457 3.9414 34.461 11.254l5.0391 3.8281h-0.003906c8.5547 6.1797 18.871 9.4492 29.422 9.3203 15.812-0.074219 30.637-7.6797 39.918-20.484 9.2773-12.801 11.891-29.258 7.0391-44.305v-0.70703c-4.4219-13.566-4.4375-28.188-0.039062-41.766 4.3984-13.574 12.984-25.41 24.523-33.805l0.50391-0.35156c11.316-8.2852 18.594-20.973 20.031-34.918 1.4375-13.949-3.0977-27.855-12.484-38.273-9.3867-10.414-22.746-16.371-36.766-16.387-14.328 0.03125-28.297-4.4961-39.879-12.93-11.586-8.4336-20.188-20.332-24.559-33.977-4.3203-13.395-14.133-24.324-26.988-30.059-12.852-5.7305-27.539-5.7305-40.391 0-12.855 5.7344-22.664 16.664-26.984 30.059-4.3828 13.637-12.988 25.523-24.57 33.945-11.586 8.4258-25.547 12.945-39.867 12.91-14.07-0.074218-27.508 5.832-36.965 16.25-9.457 10.418-14.043 24.363-12.617 38.359 1.4297 13.996 8.7383 26.727 20.109 35.02zm29.223-49.273h-0.003906c22.836 0 45.082-7.2344 63.547-20.668 18.469-13.434 32.203-32.371 39.23-54.098 1.2656-3.7812 4.8047-6.332 8.793-6.332 3.9844 0 7.5273 2.5508 8.7891 6.332 7.0312 21.727 20.766 40.664 39.23 54.098 18.465 13.434 40.715 20.668 63.547 20.668 3.9922 0.027344 7.5156 2.6055 8.75 6.4023 1.2344 3.793-0.097656 7.9531-3.3086 10.324l-0.50391 0.40234c-18.367 13.406-32.035 32.27-39.055 53.898s-7.0312 44.926-0.039063 66.562v0.75391c0.85547 2.7148 0.42188 5.668-1.1836 8.0156-1.6016 2.3516-4.1914 3.8359-7.0312 4.0273-1.9609-0.003906-3.8672-0.64062-5.4414-1.8125l-5.0391-3.8281 0.003906-0.003906c-16.906-12.355-37.301-19.016-58.242-19.016-20.938 0-41.336 6.6602-58.238 19.016l-5.0391 3.8281v0.003906c-1.5703 1.1719-3.4805 1.8086-5.4414 1.8125-2.9688 0-5.7578-1.4219-7.5039-3.8242-1.7461-2.4023-2.2344-5.4961-1.3125-8.3164v-0.75781c6.9922-21.637 6.9766-44.93-0.042968-66.562-7.0195-21.629-20.688-40.488-39.055-53.898l-0.50391-0.40234c-3.1055-2.375-4.3828-6.4453-3.1992-10.172 1.1875-3.7266 4.582-6.3086 8.4922-6.4531z"/>
</svg>